<?xml version="1.0" encoding="utf-8"?>
<!-- Generator: Adobe Illustrator 25.4.1, SVG Export Plug-In . SVG Version: 6.00 Build 0)  -->
<svg version="1.1" id="Layer_1" xmlns="http://www.w3.org/2000/svg" xmlns:xlink="http://www.w3.org/1999/xlink" x="0px" y="0px"
	 viewBox="0 0 1000 737" style="enable-background:new 0 0 1000 737;" xml:space="preserve">
<style type="text/css">
	.st0{fill:#FFFFFF;}
</style>
<path class="st0" d="M655.6,270.5L655.6,270.5c0.2,0.1,0.4,0.2,0.5,0.2l1.3,0.6l1.2,0.5l1,0.5l0.9,0.4l0,0c0.2,0.1,0.5,0.2,0.8,0.3
	l0,0c0.2,0,0.4,0.1,0.6,0.1l0,0c0.2,0,0.3,0,0.5,0l0,0c0.1,0,0.2-0.1,0.3-0.2l0,0c0-0.1,0-0.2-0.1-0.4l0,0c-0.1-0.2-0.2-0.3-0.3-0.4
	l0,0c-0.1-0.1-0.2-0.3-0.4-0.4l0,0c-0.1-0.1-0.3-0.2-0.4-0.4l0,0c-0.2-0.1-0.3-0.2-0.5-0.3l0,0c-0.2-0.1-0.5-0.1-0.7,0l0,0
	c-0.3,0-0.6,0.2-0.8,0.3l0,0c-0.2,0.2-0.4,0.4-0.5,0.7l0,0c-0.1,0.3-0.2,0.6-0.3,0.9l0,0c-0.1,0.3-0.1,0.6-0.2,0.9l0,0
	c0,0.3,0,0.6,0,0.9l0,0c0,0.3,0.1,0.6,0.2,0.9l0,0c0.1,0.3,0.2,0.6,0.3,0.9l0,0c0.1,0.3,0.3,0.6,0.5,0.8l0,0
	c0.2,0.2,0.5,0.5,0.8,0.7l0,0c0.3,0.2,0.6,0.3,0.9,0.5l0,0c0.3,0.1,0.6,0.2,0.8,0.2l0,0c0.2,0,0.5,0.1,0.8,0l0,0
	c0.2,0,0.5-0.1,0.7-0.3l0,0c0.2-0.1,0.3-0.4,0.4-0.6l0,0c0.1-0.2,0.1-0.5,0.1-0.8l0,0c0-0.2,0-0.5-0.1-0.8l0,0
	c-0.1-0.3-0.2-0.5-0.4-0.8l0,0c-0.2-0.2-0.4-0.5-0.6-0.7l0,0c-0.2-0.2-0.5-0.4-0.7-0.5l0,0c-0.2-0.1-0.5-0.2-0.8-0.3l0,0
	c-0.3,0-0.6,0-0.8,0.1l0,0c-0.3,0.1-0.5,0.3-0.7,0.5l0,0c-0.2,0.2-0.4,0.4-0.5,0.7l0,0c-0.1,0.3-0.1,0.6-0.1,0.9l0,0
	c0,0.4,0.1,0.7,0.2,1.1l0,0c0.1,0.3,0.3,0.7,0.5,1l0,0c0.2,0.3,0.3,0.6,0.6,0.9l0,0c0.2,0.3,0.5,0.5,0.8,0.7l0,0
	c0.3,0.2,0.7,0.4,1,0.5l0,0c0.3,0.1,0.7,0.1,1,0.2l0,0c0.3,0,0.7,0,1-0.1l0,0c0.3,0,0.6-0.1,0.9-0.2l0,0c0.2-0.1,0.5-0.3,0.7-0.4
	l0,0c0.2-0.2,0.4-0.4,0.5-0.7l0,0c0.1-0.2,0.2-0.5,0.3-0.8l0,0c0-0.3,0.1-0.6,0-0.9l0,0c0-0.4-0.2-0.7-0.3-1l0,0
	c-0.2-0.4-0.5-0.7-0.7-1.1l0,0c-0.3-0.3-0.6-0.6-1-0.9l0,0c-0.3-0.2-0.6-0.5-1-0.6l0,0c-0.4-0.1-0.8-0.2-1.2-0.2l0,0
	c-0.4,0-0.8,0.1-1.2,0.2l0,0c-0.4,0.1-0.7,0.4-1,0.6l0,0c-0.3,0.2-0.5,0.6-0.7,0.9l0,0c-0.2,0.3-0.4,0.6-0.5,0.9l0,0
	c-0.1,0.3-0.2,0.6-0.3,0.9l0,0c-0.1,0.3-0.1,0.6-0.1,0.9"/>
<path class="st0" d="M723.1,163.7c-4.6-5.5-8.3-11.7-11.7-18.1c-5-8.7-10.3-17.3-16.4-25.2c-3.9-5.6-7.9-11.4-13.5-15.5
	c-9-7.5-21.1-11-32.8-10.6c-12.1,0.9-22.9,7.2-32.6,14.1c-10.9,7.1-22.1,14.6-31.8,20.9c-4.2,3.3-8.7,7.2-13.4,10.6
	c4.2-2.3,8.3-5.6,12-7.6c3.6-1.3,7.1-2.9,10.5-4.8c6.1-2.4,13.4-6.2,20.5-10c14.1-7.4,34.8-1.3,51,9.2c10.6,7.6,20.2,16.5,30.7,24.2
	c8.5,7,17.4,13.4,27.7,17.5c1.6,0.8,3.1,1.8,4.8,2.5C726.4,168.6,725,165.9,723.1,163.7z"/>
<g>
	<path class="st0" d="M735.7,220.5L735.7,220.5L735.7,220.5z"/>
	<path class="st0" d="M742.4,189.1L742.4,189.1L742.4,189.1C742.4,189.1,742.4,189.2,742.4,189.1L742.4,189.1L742.4,189.1
		L742.4,189.1L742.4,189.1C742.4,189.2,742.4,189.2,742.4,189.1L742.4,189.1C742.4,189.2,742.4,189.2,742.4,189.1L742.4,189.1
		L742.4,189.1c-0.1,0-0.1,0-0.1,0l0,0c0,0,0,0,0,0c0,0,0,0,0,0c-8.6,4-16.3,11.5-19.9,20.3c-0.1,0.4-0.2,0.7-0.3,1.1
		c-1.1,1.8-1.6,3.8-1.8,6c-0.2,1-0.4,2-0.5,2.9c-0.6,3.3-1.5,6.4-2.2,9.7c-1.2,3.9-2.1,7.9-3.3,10.2c-1.4,2-1.1,5.2,1.8,5.3
		c2.8-0.5,5.4-2.2,7.8-3.7c4.3-3.6,7.8-8.3,10.4-13.2c1.1-2.3,1.4-4.8,1.6-7.3v0v0l0,0c0,0,0,0,0,0l0,0l0,0l0,0l0,0l0,0l0,0l0,0l0,0
		l0,0c0.2-0.6,0.4-1.3,0.6-1.9c2.2-5.5,3.8-11.3,5.1-17.1c0.8-3.9,0.4-8,1-11.9l0,0c0,0,0,0,0,0l0,0c0,0,0,0,0,0c0,0,0-0.1,0-0.1
		c0-0.1,0.1-0.2,0.1-0.3v0c0,0,0,0,0,0C742.5,189.1,742.5,189.1,742.4,189.1z"/>
</g>
<path class="st0" d="M579.6,94.2c-1.2-1.5-2.3-3-3.6-4.4c-2.6-2.1-4.6-4.8-7.4-6.6c-7.2-5-15.6-8.1-23.2-12.4
	c-15.4-7.8-28.9-21.8-47-22.2c-4.1,0.2-8-1-12-1.1c0.6,0.4,1.3,0.6,2,1c3.4,2.3,7.3,3.5,11,5.2c1.9,1.1,3.7,2.5,5.4,3.9
	c2.9,2.7,5.7,5.5,8.5,8.3c3.5,3.8,6.9,7.8,10.6,11.3c5,4.8,10.5,9.1,16.5,12.6c1.2,0.7,2.4,1.4,3.6,2.1c3.3,3,6.7,6.1,10.2,8.9
	c2.9,2.9,5.7,5.8,8.7,8.6c0.3,0.3,0.6,0.5,0.9,0.8c0.3,0.4,0.6,0.7,0.9,1c0,0,0,0,0,0c1.8,1.7,1.2,1.1,3.5,3.3c0,0,0.1,0,0.1,0
	c0.9,0.1,1.8-0.1,2.5-0.7c0.9-0.2,1.7-0.9,2.1-1.8c2.2-1.9,4.8-4.7,5.4-5.6c0.3-0.3,0.5-0.6,0.5-0.9c0,0,0,0,0-0.1s0,0,0,0
	c0,0,0,0,0,0c0.8-1.6,1.3-3.2,2.1-5.7c1-3,1.3-2.4,0-3.8"/>
<path class="st0" d="M852.9,343.9c-1.2-14.7-6.9-29-15.7-40.8c-11.5-14-24.4-27.9-41.1-35.5c-0.9-0.4-1.8-0.7-2.8-1.1
	c2.7,2.8,5.1,5.9,7.3,9c8.1,11,14.2,23.3,22.5,34.1c8.5,11.8,18.1,23,24.1,36.4c2,4.7,4.8,9.5,4.1,14.9
	C853.8,355.4,853.4,349.6,852.9,343.9z"/>
<path class="st0" d="M362.7,527.8c-0.1,0-0.2,0.1-0.3,0.1c-5,2.7-9.9,5.7-15.3,7.6c-18.8,6.3-43.2,12.2-64.8,14
	c-15.1,2.4-30.5,2.6-45.8,1.5c-13-1-20.5-2.6-32.9-7c-10.9-3.2-21.7-7-32.1-11.7c-0.1-0.1-0.2-0.1-0.3-0.2
	c-16.1-8.4-30.2-20.4-42.4-33.7c-0.1-0.1-0.2-0.2-0.3-0.4c-8.4-10.8-16.1-35.6-21.9-48c-0.1-0.1-0.1-0.2-0.1-0.3
	c-5.5-14.9-9.6-29.8-11.6-46.7c0-0.1,0-0.2,0-0.2c-1.5-8.1-3.6-20.2-4.9-27.5c-0.1,0-0.1-0.1-0.1-0.2c-0.1-0.7-0.3-1.3-0.5-1.8
	c-0.3-1.3-0.5-2.5-0.6-3.6c0-0.2,0-0.5,0-0.7c0.2,0,0.4-0.1,0.5-0.1c0.1,0,0.2,0,0.2,0l0,0c0,0,0.1,0,0.1,0c0,0,0,0,0,0c0,0,0,0,0,0
	h0c0,0,0,0,0,0c5.5-1,10.9-2.2,16.3-3.5c11.9-3.1,24.2-5.5,35.2-11.2c5.3-2.6,10-6.2,14.7-9.8c0.1-0.1,0.2-0.1,0.3-0.2
	c9.8-6.6,20.1-12.7,29.6-19.7c0.7-0.5,1.3-1,1.9-1.6c6.9-4.9,13.2-10.5,19.5-16.2c0.1-0.1,0.2-0.1,0.3-0.2c1.9-1.5,4.2-3.3,7.1-5.8
	c0,0,0,0,0,0c1.9-1.6,3.7-3.3,5.5-5c0.2-0.2,0.4-0.3,0.6-0.5c4-2.6,8.6-6.2,9.9-7.1c0.1-0.1,0.2-0.1,0.3-0.2
	c6.1-4.7,11.7-9.9,16.6-15.8c0.1-0.1,0.2-0.2,0.3-0.3c1.2-1.2,3.2-3.1,4.1-4.2c0.1-0.1,0.2-0.2,0.4-0.4c5.7-5.2,7.5-6.4,17.9-16
	c0.1-0.1,0.1-0.1,0.2-0.2c10.8-11.4,17.5-16.7,31.2-34.6c7-9.2,10.1-11.6,19.1-24.1c1.1-1.5,2.2-3,3.4-4.5
	c1.8-2.3,6.6-7.3,12.7-14.7c6.4-8.6,11.6-14.8,19.6-25.1c6.1-8.2,9.5-17.9,14.6-26.6c-8.1,11.6-15.2,25.2-22.1,32.3
	c-9,9.4-15.2,17.5-21.2,24.1c-7.3,7.4-14.4,15-20.8,23.3c-2.9,3.7-14.8,16.5-22.9,26.7c-0.4,0.5-1.1,1.3-1.5,1.7
	c-4.6,4.6-9.2,9.2-13.8,13.8c-0.4,0.4-0.8,0.7-1.2,1.1c-6.3,4.9-12.5,9.9-18.5,15.1c-0.4,0.3-0.8,0.7-1.2,1
	c-0.6,0.5-1.2,0.9-1.9,1.4c-0.6,0.5-1.2,0.9-1.8,1.4c-6.5,4.5-12.9,9.2-19.2,14c-0.2,0.1-0.3,0.2-0.5,0.4
	c-24,16-39.8,28.8-61.8,39.6c-15.7,7.7-26.7,10.2-46,14.4c-0.1,0-0.2,0-0.3,0.1c-12.1,1.9-24.3,3.7-36.5,5.2
	c-3.2,0.5-6.5,0.6-9.8,0.8c-2.4,0.1-3.9-1.9-4.6-4.2c-1.3-4.5-2.1-12.2-2.3-13.6c-4.7-28,9.1-60.5,21-85.4c0-0.1,0.1-0.2,0.1-0.3
	c6.7-11.4,12.1-23.5,18.4-35.1c0.1-0.1,0.1-0.2,0.2-0.3c3.1-5,6.6-9.9,9.8-14.8c10.6-17.3,10.6-18.4,21-32.1
	c9.7-13.9,9.8-14,17.8-23.3c9.4-10.8,5.7-7.4,17.1-18.4c13.9-13,24.5-21.2,42.2-32.9c6.9-5,13.8-9.4,21-13.5
	c0.1-0.1,0.2-0.1,0.3-0.2c9.5-4.6,19-9,28.4-13c5.3-2.2,2.2-10.1-3.1-8.2c-3.5,1.3-7,2.6-10.4,4c-16.4,6.5-31.7,15.4-47.3,23.6
	c-0.1,0-0.2,0.1-0.2,0.1c-14.7,9-29.4,18-43,28.5c-12.4,9.1-23.5,19.8-34.7,30.4c-12.6,12.8-25.3,25.8-36.4,40
	c-0.1,0.1-0.1,0.2-0.2,0.2c-10.1,14.5-11.5,15.1-22,30.9c0,0.1-0.1,0.1-0.1,0.2c-9.2,15.6-18.4,31.2-25.7,47.8
	c-6,15.3-9.9,31.4-12.4,47.6c-2.2,17.8-4.8,37.2,1.5,54.3c0.6,2.5,1.5,4.9,2.4,7.3c1.2,2.9,2.4,6.1,4.8,8.2c0.4,0.2,0.9,0.5,1.3,0.6
	c0.9,0.5,2,0.8,3,1.1c5.1,1.2,10.3,1.9,15.5,2.7c8.8,1.4,17.5,1.2,26.3,0.2c0,0.5,0.1,1,0.1,1.5c0.5,6.9,1,29.5,1.3,36.4
	c0.9,21.6,0.3,41.8,4.3,66.7c0,0.2,0.1,0.4,0.1,0.6c3.6,12.7,14,39.3,20.9,48.3c14.6,18.2,33.9,32.3,56.1,39.6
	c10.8,3.7,21.8,7.3,33,9.5c16.6,2.8,33.5,1.4,50.2-0.4c8-0.8,15.7-3.4,23.6-4.8c14.3-2.8,28-7.5,41.7-12.3c6.5-2,12.8-4.7,18.9-7.6
	c9.9-3.9,19.3-8.9,28-15.2c0.1,0,0.1-0.1,0.2-0.1c6.3-4,12.9-7.6,19.3-11.8C372.8,523.2,367.7,525.5,362.7,527.8z"/>
<path class="st0" d="M394.9,214.3c-2-9.4-5.9-18.3-9.1-27.3c-0.1-0.2-0.1-0.4-0.2-0.7c-0.8-4-0.9-4.5-1.5-6.7
	c-0.5-1.7-0.9-3.4-1.7-5c0.2,2,0,4,0,6.1c-0.1,3.7,0.1,7.2-0.1,10.9c0,0.2,0,0.3,0,0.5c0.4,3.9,0.1,8,0.3,11.9
	c1.7,21.6,1,43.3-0.2,64.9c0,0.1,0,0.2,0,0.3c-2.2,18.5-4.2,37-3.6,55.6c0,0.1,0,0.2,0,0.3c-1.1,20,0.4,40.1,3.3,59.9
	c0,0.1,0,0.2,0,0.3c0,0.1,0,0.2,0.1,0.3c1.1,5.4,9,5,9.4-0.6c0.6-9.2,1.1-18.4,2-27.5c1.1-20.1,4.2-40,5.3-60.1
	c0.2-14.8,1.6-29.5,1.5-44.3C399.9,238.8,397.2,225.5,394.9,214.3z"/>
<path class="st0" d="M260.6,594c7.2-6.7,15.8-9.7,24.3-12.1c7.1-2.1,14.5-2.7,21.9-2.2c2.5,0.2,5.1,0.4,7.4,1.3
	c1.2,0.6,2.3,1.5,3.6,2c-1.1-0.9-1.8-2.2-2.9-3.2c-2.6-2-5.8-2.9-8.9-3.8c-8.6-2.4-17.9-2-26,1.8c-20.9,6.9-35.6,25.9-43.9,45.6
	c-3.5,8.9-5.8,18.5-5.1,28.2c1.2,11.6,5.4,22.9,11.6,32.7c7.3,10,18,17.6,29.6,21.8c10.5,2.6,21.9,4.1,32.4,1
	c27.7-8,54.2-30.6,58-60.4c0.9-9.8-3.2-19.1-8.1-27.4c-3.8-6.6-9.8-11.4-15.8-15.9c-1-0.8-1.9-1.5-2.9-2.3c1,1.4,1.9,2.9,2.8,4.3
	c5.8,8.1,9.9,17.2,11.5,27c1.2,5.9,2.1,14,1,20.7c-1.5,9.3-4.3,15.2-9.2,23.9c-0.3,0.5-0.9,1.3-1.4,2.1c-2.2,1.2-5.9,3-6.9,3.4
	c-0.8,0.3-1.6,0.6-2.4,0.9c-0.5,0.2-1.1,0.4-1.5,0.5c-12.4,4.1-24.3,1.8-34.2-1.3c-7.2-2.8-13.6-7.3-19.6-12
	c-5.3-4-10-8.8-13.5-14.5c-4.5-6.9-10-19.6-10.6-24.5c-2.5-15.9-3-26.7,8.3-37.6"/>
<path class="st0" d="M627,667.9c-3.2,2-8.7,3.8-12.9,5.6c-15.8,7.7-33.7,11.4-52.4,14.8c-12.1,2.5-23.9,6.4-36,8.2
	c-28.1,4.3-56.6,5.4-85.1,6c-16.7,0.8-33.4-2.2-50.1-2.3c-0.9-0.1-1.8-0.3-2.6-0.5c0.5,0.3,0.9,0.6,1.4,0.9
	c8.9,3.2,17.6,7,26.6,10.1c29.6,8.2,61.1,11.1,91.6,6.7c12.1-2,23.7-6.4,35.4-9.9c21.3-6,45.3-14.1,62.9-25.3
	c8.7-4.9,21.4-11.7,29.5-20.1C632.5,664.1,629.9,666.1,627,667.9z"/>
<path class="st0" d="M732,377.4c-2.4-12-7-23.4-12-34.6c-5.2-10.4-11.6-21.9-19.8-31.4c-4.8-7.1-10.6-13.4-17.7-18.2
	c2.9,4.1,6.7,9.9,9.2,14.3c2.8,4.9,4.4,8.2,7.2,13.1c7.7,12.6,13.6,25.7,18.9,39.4c4,9.9,7.9,20.4,10.3,30.9
	c1.8,8.1,3.1,15.2,4.5,24.1c1.1,6.8,0.5,13.4,1.7,20.2c0-4,0.3-8,0.3-12C735.1,407.8,734.9,392.4,732,377.4z"/>
<path class="st0" d="M698,571.1c-6,8.8-8.5,13.1-13.1,19.2c-15,22.8-18.7,27.9-29.2,37.4c-13.8,13.6-16.3,15.7-33.8,27.7
	c-3.3,2.2-6.6,4.1-10,6.1c2.5-0.9,4.9-1.9,7.3-3c9.5-4.9,19-10.2,27-17.5c9.2-8.2,18.6-16,26.7-25.2c10.5-11.3,19.5-27.2,23.2-33.3
	c5.2-7.4,8.4-14.6,11.9-20.1c5.9-9.5,11.4-19.3,13.9-30.3C715.7,546.5,707.4,558.2,698,571.1z"/>
<path class="st0" d="M498.8,184.8c-21.7-8-45.3-7.5-67.8-4.4c-14.4,1.4-28.7,4.2-41.8,10.6c14.3-4.7,29.3-3.6,44.2-4.3
	c20.8-1.4,41.7-2.5,62.6-0.6c2.9,0.4,5.8,0.8,8.7,1.2C502.7,186.4,500.8,185.5,498.8,184.8z"/>
<path class="st0" d="M742.4,189.3c0,0,0,0.1,0,0.1"/>
<path class="st0" d="M742.4,189.3c0,0,0,0.1,0,0.1"/>
<path class="st0" d="M742.4,189.4c0,0.1-0.1,0.1-0.1,0.2"/>
<path class="st0" d="M742.4,189.3c-0.1,0.1-0.1,0.2-0.1,0.4"/>
<path class="st0" d="M742.5,189.2c-0.1,0.1-0.1,0.3-0.2,0.4"/>
<path class="st0" d="M742.5,189.1c-0.1,0.1-0.2,0.2-0.3,0.3"/>
<path class="st0" d="M946.3,430.9c0.3-2.7-0.5-6.2-2.8-7.9c0.6-2.2,0.5-4.5-0.2-6.7c-0.4-2-2.3-5.1-3.1-5.6
	c-0.4-0.4-0.9-0.7-1.4-1.1c0.2-1.5,0-3.6-0.2-4.5c-0.5-2.6-1.7-5.8-4.7-6.3c-0.1,0-0.1,0-0.2,0c-0.8-0.4-1.7-0.7-2.6-0.8
	c-0.7-0.2-1.4-0.3-2.1-0.3c3-2.7,5.6-5.9,4.5-10c-0.3-2-2.4-3.4-4.3-3.5c-2.6,0.1-4.6,1.2-6.7,2.2c-2.2,0.5-4.8,1.2-7.4,1.9
	c-3.8,0.6-7.8,0.8-11.7,1.5c-0.1,0-0.1,0-0.2,0c-4,0.7-7.9,2-11.3,4.8c-7.9,6-12.9,15.1-20.7,21.2c-2.3,2.1-5,3.9-7.5,6.1
	c-5.7,3.6-11.5,6.9-16.9,9.5c-9,4.9-9.4,4.5-19.7,9.1c-12.6,6.5-15.3,7.6-28,12.5c-9,3.5-16.2,6.9-23,9.8c-3.9,0.7-7.8,1.4-11.6,2
	c-5.1,1-12.3,1.6-20.8,0.7c-0.4,0-0.7-0.1-1-0.1c-10-1.5-30.4-3.7-34.8-4.4c-22.9-3.5-51.9-4.8-70.3-7.2
	c-13.2-2.1-23.9-6.9-33.2-11.1c-8.9-4-14.1-5.3-21.6-9.9c-0.4-5.2-1.2-10.3-3.2-15.1c-6.2-15.8-16.7-24-23.9-36
	c-0.2-0.3-0.4-0.7-0.6-1c-0.1-1-0.2-1.9-0.3-2.9c1.3-6.8,3.9-17,6.1-24.3c0.1-0.6,0.3-1.2,0.5-1.9c0.6-0.8,1.1-1.7,1.3-2.7
	c0.1-0.4,0.2-0.9,0.2-1.2c0.1-0.2,0.1-0.4,0.2-0.5c0.5,0.4,1,0.9,1.5,1.2c5.9,4.9,12.5,8.9,19.6,11.8c6.7,3.5,14,2.7,19.5-2.4
	c0.2-0.2,0.5-0.3,0.7-0.6c2.3-2.1,5.2-3.3,8.5-7.1c3.4-2,6.6-4.3,9.7-6.8c0,0,0,0,0.1-0.1c0.5-0.3,1-0.6,1.5-0.9c0.8,0,2.1,0,3.2,0
	c0.5,0.1,2,0.4,3.1,0.8c2.4,1.3,4.5,3.2,7.2,4c5.3,1.8,11.2-0.7,14.1-5.4c3.6-5.3,4.4-11.8,5.8-17.8c0.7-3,1.4-6.1,2.6-9
	c0,0,0-0.1,0.1-0.1c1.9-4,4.2-7.9,6.6-11.6c3.8-4.1,7.3-8.3,9.6-13.5c0.3-0.5,0.6-1.1,1-1.7c1.7,1,3.4,1.9,5.1,2.9
	c16.7,8.1,32.7,17.5,49.5,25.3c19.8,10,39,21.2,59.6,29.7c-7.3-5.2-14.4-10.5-20.8-16.8c-8.5-6.9-16.7-14.2-25.2-21.1
	c-25.6-19-51.6-37.3-76.3-57.5c-10.5-8.8-22-16.4-32.9-24.7c-11.3-10-22.7-19.9-35-28.8c-8.3-6.6-16.6-13-25.8-18
	c-17.1-10.4-33.1-22.5-49.1-34.3c-26.9-17.6-53.5-35.9-77.7-57.2c-9.3-7.8-19.2-15-28.4-22.9c-5.5-4.9-10.1-10.5-15.3-15.7
	c-4.5-4.5-8.8-9.2-12.9-14.1c-2-2.4-4-4.9-4.9-7.9c-0.8-2.1-1.1-5-0.6-6.8c2.7-1.2,9.4-2.6,13.8-2.2c3,0,6.1,0.2,9,1
	c-0.5-0.3-1.1-0.6-1.7-0.9c-6.1-2.4-13.5-4.5-19.5-1.1c-3.6,2.4-6.9,5.9-7.4,10.3c-1.4,10.5,6.6,18.8,11.4,27.4
	c5,7.5,9.3,15.4,14.8,22.5c6.4,7.8,13.4,15.2,20.4,22.7c8.3,8.9,15.7,18.7,24.3,27.3c9.2,8.3,18.2,16.8,27.9,24.5
	c7.5,5.9,15.7,11,23.4,16.7c2.6,2,5.2,4,7.8,6c0,0,0,0,0,0c-0.4,0.3-0.9,0.6-1.2,1.1c-3.8,4.2-6.5,9.3-8.3,14.6
	c-0.7,1.6-1.4,3.1-2,4.7c-3.9,10.7-6.1,22-7.2,33.3c-0.4,1-0.5,2.5-0.6,3.2c-0.8,6.4-0.4,12.8,0.3,19.2c-0.9,10.7-0.9,21.5-1.2,32.2
	c0,1,0,2.1-0.1,3.3c-3.6,5.9-7.7,11.4-11.5,17c-6.5,8.8-6.1,9.5-14.2,17.3c-8.1,7.7-16.5,12.6-25.8,20.2c-3.9,2.8-7.8,5.8-11.4,9.1
	c-5,4.6-8.5,10.5-12.1,16.2c-2.9,4-5.7,8-8.3,12.1c-4.8,8.7-8.7,17.8-12,27.2c-1.6,4.1-3.3,8.3-5.1,12.4
	c-6.5,14.4-9.4,29.9-11.7,45.5c-2.1,14.5-4.2,29-5.5,43.5c-1.9,20.4-3.9,40.9-3.1,61.4c0.7,16,4.5,31.7,7.6,47.4
	c3.6,18,8.4,35.7,14.7,52.9c4.7,12.5,9,26.6,20.6,34.5c5,3.8,11.6,4.2,17.6,4c8.8-0.1,17.5-1.2,26.2-2.1c13.2-1.2,26.5-2,39.7-4.2
	c7.8-0.4,15.6-1,23.4-2.2c6.6-0.7,13.2-1,19.7-2.1c4.6-0.4,8.9-2.4,13.4-3.4c6.8-0.9,13.1-3.5,19.1-6.7c1.9-1,3.9-1.9,5.7-3.1
	c0.6-0.3,1.1-0.6,1.5-1c3.1-2,5.1-5.2,7-8.4c1.8-2.2,3.5-4.6,4.5-7.3c4.6-10.8,4.3-22.8,2.9-34.2c-1.1-13.1-2.9-26.1-3.8-39.2
	c-0.6-10.6-1-20.8-0.7-30.4c1-2.6,2-4.9,3.7-8.8c1.7-4.2,3.9-8.2,6.8-11.8c-0.3,0.4-0.5,0.7-0.8,1.1c1.2-1.9,3.2-3.6,4.3-5.6
	c1-1,2.2-1.9,3.6-2.8c0.1-0.1,0.2-0.1,0.3-0.2c2-0.1,4.2-0.2,6.5-0.3c10.4-0.6,20.8-1.5,31.2-0.9c11.6,0.9,18.9,2.7,32.2,4.1
	c15.5,1.6,31.2,1.8,46.8,0.9c3-0.2,6.1-0.5,9.1-0.9c4,1.4,8,2.8,12.2,3.4c5.7,0.9,11.6,0.9,17.3-0.2c5.4-1.5,10.5-4,15.5-6.5
	c5.6-3.2,10.7-7.2,16.6-9.9c13.8-7.3,27.1-15.5,40-24.3c10.1-7.9,14.7-11,27.7-19.1c7.6-4.7,14.5-10.3,22.4-14.6
	c0.5-0.2,0.9-0.5,1.4-0.8c3.3-0.7,6.5-1.1,10-1.6c7.3-1.4,14.5-3.3,21.5-5.5c5.1-1.4,10.2-2.8,15-4.7c2.1-0.4,4.1-1.2,6-2.1
	c2.1-0.9,4.2-2.4,5.2-4.6c1.1-2.5,0.8-5.2,0.1-7.8c0.1-0.1,0.2-0.2,0.2-0.3C945.3,436.3,946.3,433.6,946.3,430.9z"/>
<path class="st0" d="M607.6,358.3c3.4-4.6,6.6-8.6,10.6-14c-0.3,0.1-1.1,0.8-2,1.7c0.2-0.2,0.3-0.5,0.5-0.7c1.1-1.3,0.6-0.8-0.3,0
	c-1.8,1.7-3.5,3.4-5.1,5.3c0.5-0.9,1.1-1.7,1.6-2.6c1.2-1.3,2.4-2.6,3.7-3.9c-0.8,0.5-1.6,1-2.4,1.6c0.4-0.6,0.7-1.3,1.1-1.9
	c-0.8,1-1.7,2-2.5,3.1c-2.1,1.8-3.9,3.8-5.6,6.1c0.1-0.4,0.1-0.8,0.1-1.2c-0.4,0.7-0.7,1.4-0.9,2.2c-0.6,0.9-1.1,1.7-1.7,2.6
	c0.2-0.5,0.3-1.1,0.5-1.6c2.6-5.2,4.9-10.4,7.4-15.6c-1.9,2.5-3.6,5.2-5.2,7.9c0.2-0.9,0.5-1.7,0.7-2.5c-1,2.1-1.9,4.2-2.8,6.4
	c-0.2,0.4-0.4,0.7-0.6,1.1c0.7-2.3,1.3-4.5,2-6.8c1.3-3,2.6-6.1,4-9.6c-0.8,1.3-1.6,2.6-2.4,4c0.1-0.3,0.2-0.5,0.2-0.8
	c-0.3,0.7-0.6,1.4-1,2.1c-0.1,0.3-0.3,0.5-0.5,0.8c0.6-1.6,1.3-3.2,2-4.9c-1,1.6-1.9,3.3-2.8,5c0-0.2,0.1-0.4,0.1-0.5
	c-0.7,1.4-1.4,2.9-2,4.4c0-0.2,0-0.5,0-0.7c-0.1,0.4-0.2,0.8-0.2,1.3c-0.1,0.2-0.2,0.5-0.3,0.7c-0.2,0.3-0.3,0.6-0.5,0.9
	c0.2-0.9,0.5-1.7,0.7-2.6c-0.5,0.9-0.9,1.7-1.3,2.6c0-0.1,0-0.2,0-0.4c1.6-3.8,3.7-7.5,5.4-11.8c-1.4,1.9-2.7,3.8-3.9,5.8
	c1.4-4,2.9-8,4.5-11.9c0.2-0.4,0.3-0.8,0.5-1.1c-3.2,4.8-6.1,9.8-8.2,15.1c-0.3,0.8-0.6,1.7-0.9,2.5c0.7-9,0.9-18.1,0.6-27.2
	c-1.2,5.9-2.1,11.9-2.6,17.8c0-0.2-0.1-0.4-0.1-0.5c-0.3,1.2-0.3,2.5-0.1,3.7c0,0.3-0.1,0.7-0.1,1c0-0.1,0-0.2,0-0.3
	c-0.1-2.6-0.4-5.2-0.7-7.7c-0.2,3-0.4,6.1-0.5,9.1c-0.1-0.6-0.2-1.3-0.4-2c0-1.1-0.1-2.2-0.5-3.3c-0.1,0.3-0.1,0.6-0.1,1
	c-1.6-5.6-3.9-11-6.2-16.4c-1.2-3.7-2.5-7.5-3.8-11.2c0.2,1.7,0.5,3.5,0.8,5.2c-1.3-2.6-2.6-5.2-4.2-7.8c1.9,5.4,3.7,10.9,5.6,16.3
	c0.2,2.8,0.6,5.5,1,8.3c-0.2-0.8-0.5-1.6-0.8-2.3c0,0.6,0.1,1.2,0.1,1.9c0-0.1,0-0.1-0.1-0.2c-0.6-2.4-1.4-4.7-2.8-6.8
	c0.1,0.7,0.2,1.4,0.4,2c-0.6-1.3-1.3-2.7-2-4c0.6,2,1.2,3.8,1.8,5.7c0,0-0.1,0-0.1,0c-1.7-5.2-3.6-10.2-5.8-15.2
	c1.4,5,2.4,10.2,3.6,15.2c-0.9-1.8-1.9-3.5-2.8-5.3c-2.2-9.5-3.6-19.4-4.7-27.6c-0.9-6.8-2.1-14.5-2.8-24.5
	c-0.1-2.1-0.3-4.2-0.4-6.4c-0.1,1.3-0.3,2.6-0.4,3.9c-1.9,15.8-0.8,32,3.9,47.1c-1-1.6-2.1-3.2-3.2-4.7c-1.7-7.3-3.4-14.6-4.9-21.9
	c0.5-6.1,1.3-12.2,1.4-18.3c-0.9,3.8-1.9,7.6-2.5,11.5c-1.2-8.4-2.4-16.3-2.9-26.8c0-0.5,0-1-0.1-1.5c-0.4,3-0.8,6.1-1,9.1
	c-0.6,10.5,0.8,21.1,3.2,31.3c0.1,1.5,0.3,2.9,0.6,4.3c0.3,2.1,0.6,4.1,1,6.1c0.6,2.9,1.5,5.7,2.4,8.5c-1-1.5-1.9-3-2.9-4.5
	c-1.2-2.5-2.4-4.9-3.6-7.3c-3.5-17.2-4.5-32.6-5.7-51.9c-0.1-1.4-0.1-2.8-0.1-4.3c-0.2,1.3-0.4,2.7-0.6,4
	c-2.1,13.3-2.6,25.1-0.6,36.6c-2.1-5.2-4.6-11.6-6.5-16.9c0.5,4.5,2.2,12.9,4.4,20.2c-2.3-4.3-4.5-8.7-6.6-13.2
	c-0.9-3.4-1.8-6.8-2.6-10.3c0,1.7,0.1,3.3,0.1,5c-0.8-1.7-1.5-3.4-2.3-5.1c0.7,3.2,1.5,6.3,2.4,9.5c0.1,2.7,0.2,5.4,0.4,8.1
	c0-0.1-0.1-0.2-0.1-0.3c0,0.2,0.1,0.5,0.1,0.7c0.4,6.1,1.1,12.2,2.7,18c-0.1-0.2-0.3-0.5-0.4-0.8c0.1,0.4,0.2,0.9,0.4,1.3
	c1.2,4,2.2,7.9,3.4,11.9c-0.1-0.1-0.1-0.2-0.2-0.4c1.7,5.8,3.5,11.6,5.6,17.3c1,3.5,2.1,6.9,3.6,10.2c2.6,5.5,6.4,10.3,10,15.2
	c-0.4-1.2-0.7-2.3-1.1-3.4c1.9,2.5,3.9,4.9,5.9,7.3c-1-2.2-1.9-4.5-2.8-6.8c0.9,1,1.9,2,2.9,2.9c2,2.6,4.3,5.1,6.6,7.5
	c-0.9-2-1.9-4.1-2.8-6.1c1.4,1.9,2.8,3.7,4.3,5.5c-0.6-1.6-1.2-3.2-1.7-4.7c0.8,0.8,1.6,1.7,2.4,2.5c1.4,2,2.8,3.9,4.2,5.9
	c-0.3-1.4-0.8-2.7-1.2-4c0.2,0.4,0.5,0.8,0.7,1.1c0.2,0.4,0.4,0.9,0.6,1.3c0.7,1.5,1.4,2.9,2,4.4c-0.1-0.4-0.2-0.8-0.3-1.2
	c0.8,1.4,1.7,2.6,2.6,3.9c0.2,0.4,0.3,0.8,0.5,1.2c0-0.2-0.1-0.4-0.1-0.7c0,0,0,0.1,0.1,0.1c-0.1-0.3-0.2-0.6-0.2-0.8
	c-0.2-0.8-0.4-1.6-0.5-2.5c2.3,4.6,4.9,9.1,8,13.3c-1.7-3.8-3.2-7.4-4.7-11c0.8,1.6,1.6,3.2,2.3,4.8c-0.5-2-1.1-3.9-1.8-5.8
	c0,0,0.1,0,0.1,0c0.4,0.8,0.8,1.6,1.2,2.4c0.3,1,0.5,1.9,0.8,2.7c-0.1-0.5-0.1-1.1-0.2-1.6c0.2,0.5,0.5,1,0.8,1.5c0,0.6,0,1.1,0,1.7
	c0-0.4,0.1-0.9,0.1-1.3c1.5,2.7,3.1,5.3,5,7.7c-0.4-1-0.8-2-1.3-3c-0.3-1.7-0.8-3.2-1.3-4.8c0.5,1,1.1,2,1.7,3
	c-0.1-0.8-0.2-1.5-0.2-2.3c0.2,1.3,0.6,2.6,1.1,3.8c0-1.1-0.2-2.2-0.4-3.2c0.1,0.2,0.2,0.5,0.2,0.7c0-0.3-0.1-0.6-0.1-0.9
	c0.9,2.6,1.9,5.2,3.1,7.7c-1.3-5.8-1.7-11.9-2.4-18c0.1-1.1,0.3-2.2,0.5-3.2C605.9,362.2,606.7,360.3,607.6,358.3z"/>
<path class="st0" d="M895.3,378.8l8-2c1.5-0.4,3.1,0.5,3.5,2.1l21.6,85.1c0.4,1.5-0.5,3.1-2.1,3.5l-9.1,2.3
	c-1.5,0.4-3.1-0.5-3.5-2.1l-21.3-84.1C891.9,381.4,893.2,379.3,895.3,378.8z"/>
<rect x="936.1" y="374.2" transform="matrix(0.9692 -0.2461 0.2461 0.9692 -101.5108 247.0259)" class="st0" width="3.1" height="311"/>
<ellipse transform="matrix(0.9611 -0.2761 0.2761 0.9611 -92.9971 272.7214)" class="st0" cx="922" cy="466.6" rx="12.6" ry="3.6"/>
<path class="st0" d="M550.5,403c-2-4.3-4.7-8.1-7.3-12.1c-6-10-13.1-19.5-22.3-26.8c-7.1-6-14.8-11.5-23.8-14.3
	c-4.6-1.4-9.3-2.5-14.1-2.3c-6.1,0.3-11.8,2.6-17.4,4.8c-5.3,2.1-10.8,4.1-15.5,7.3c-5.9,4-10.7,9.3-15.2,14.8
	c-23.3,26.9-24.1,86.4-9,117.5c4.3,10.3,10.2,19.9,18,27.9c9.1,9.3,26.9,20,34.1,25.4c12.8,9.9,22.4,21.2,27.3,36.7
	c-1.1-8.9-4.5-17.2-8.6-25.1c-6.1-11.4-15.8-20.3-25.3-28.8c-9.5-9-18.6-17.7-23.2-25c-13.4-21.2-17.8-37.2-17.9-62
	c0.1-18.9,3-36.3,10.3-49.5c3.7-6.7,12.6-16,15.7-18.5c8.1-5.4,9.4-5,19.2-8.9c8.7-3.1,10-2.5,14.9-1.9c5.9,1.1,10.5,3,12.1,3.8
	c16.2,8.2,25.2,16.1,37.6,29.4c2.6,2.6,6.1,5.9,8,8.4c2.5,3.3,4.8,8.9,6.9,13.3C553.4,412.4,552.5,407.5,550.5,403z"/>
</svg>
