<?xml version="1.0" encoding="utf-8"?>
<!-- Generator: Adobe Adobe Illustrator 24.2.0, SVG Export Plug-In . SVG Version: 6.00 Build 0)  -->
<svg version="1.1" id="Layer_1" xmlns="http://www.w3.org/2000/svg" xmlns:xlink="http://www.w3.org/1999/xlink" x="0px" y="0px"
	 width="1000px" height="1000px" viewBox="0 0 1000 1000" style="enable-background:new 0 0 1000 1000;" xml:space="preserve">
<style type="text/css">
	.st0{fill:none;}
	.st1{fill:#FFFFFF;}
	.st2{fill:#4F6AB3;}
	.st3{fill:none;stroke:#000000;stroke-miterlimit:10;}
	.st4{fill:none;stroke:#000000;stroke-width:0;stroke-linecap:round;stroke-linejoin:round;}
	.st5{fill:#66686B;}
	.st6{stroke:#000000;stroke-miterlimit:10;}
</style>
<path class="st0" d="M610.49,410.32L610.49,410.32c0.08,0.04,0.17,0.08,0.25,0.12l0.63,0.3l0.56,0.26l0.49,0.23l0.43,0.19l0,0
	c0.12,0.05,0.25,0.1,0.38,0.13l0,0c0.1,0.02,0.21,0.04,0.31,0.05l0,0c0.08,0,0.16,0,0.23-0.02l0,0c0.05-0.02,0.12-0.04,0.13-0.08
	l0,0c0.02-0.04-0.01-0.12-0.03-0.17l0,0c-0.03-0.08-0.1-0.15-0.15-0.21l0,0c-0.05-0.07-0.11-0.13-0.17-0.2l0,0
	c-0.06-0.06-0.13-0.12-0.21-0.17l0,0c-0.08-0.05-0.16-0.11-0.24-0.14l0,0c-0.11-0.03-0.24-0.04-0.36-0.02l0,0
	c-0.13,0.02-0.27,0.08-0.37,0.16l0,0c-0.11,0.08-0.2,0.21-0.26,0.33l0,0c-0.07,0.13-0.12,0.28-0.16,0.43l0,0
	c-0.04,0.14-0.07,0.28-0.08,0.42l0,0c-0.01,0.15,0,0.3,0.02,0.44l0,0c0.02,0.15,0.06,0.3,0.11,0.44l0,0
	c0.04,0.14,0.09,0.28,0.15,0.41l0,0c0.07,0.13,0.15,0.27,0.24,0.38l0,0c0.11,0.12,0.24,0.23,0.37,0.32l0,0
	c0.13,0.09,0.27,0.16,0.42,0.22l0,0c0.13,0.05,0.27,0.1,0.4,0.12l0,0c0.12,0.02,0.25,0.04,0.37,0.01l0,0
	c0.11-0.02,0.23-0.07,0.32-0.14l0,0c0.09-0.07,0.15-0.19,0.19-0.3l0,0c0.04-0.11,0.05-0.25,0.05-0.37l0,0
	c0-0.12-0.01-0.25-0.04-0.37l0,0c-0.04-0.13-0.11-0.26-0.18-0.37l0,0c-0.08-0.12-0.19-0.23-0.31-0.32l0,0
	c-0.1-0.09-0.22-0.18-0.34-0.24l0,0c-0.12-0.06-0.24-0.12-0.37-0.13l0,0c-0.13-0.01-0.28,0.01-0.4,0.06l0,0
	c-0.13,0.05-0.24,0.14-0.34,0.24l0,0c-0.09,0.09-0.18,0.2-0.23,0.32l0,0c-0.05,0.13-0.07,0.29-0.07,0.44l0,0
	c0.01,0.17,0.06,0.34,0.12,0.51l0,0c0.06,0.16,0.14,0.32,0.22,0.47l0,0c0.08,0.14,0.16,0.29,0.27,0.41l0,0
	c0.12,0.13,0.26,0.24,0.4,0.34l0,0c0.15,0.09,0.32,0.17,0.49,0.22l0,0c0.16,0.05,0.33,0.07,0.5,0.08l0,0
	c0.16,0.01,0.32-0.01,0.47-0.04l0,0c0.14-0.02,0.28-0.05,0.41-0.11l0,0c0.12-0.05,0.24-0.13,0.33-0.21l0,0
	c0.1-0.09,0.18-0.2,0.24-0.32l0,0c0.06-0.12,0.1-0.26,0.13-0.4l0,0c0.02-0.14,0.03-0.3,0.01-0.44l0,0c-0.02-0.17-0.08-0.34-0.16-0.5
	l0,0c-0.09-0.18-0.22-0.35-0.36-0.51l0,0c-0.14-0.15-0.29-0.3-0.46-0.42l0,0c-0.15-0.11-0.31-0.23-0.48-0.3l0,0
	c-0.17-0.07-0.37-0.11-0.56-0.11l0,0c-0.19,0-0.39,0.03-0.56,0.09l0,0c-0.17,0.07-0.33,0.18-0.47,0.3l0,0
	c-0.14,0.12-0.26,0.27-0.36,0.42l0,0c-0.1,0.14-0.18,0.29-0.25,0.44l0,0c-0.06,0.14-0.11,0.3-0.14,0.45l0,0
	c-0.03,0.14-0.05,0.28-0.07,0.42"/>
<path class="st0" d="M282.08,289.25L282.08,289.25c-0.27,0.17-0.54,0.33-0.81,0.5l-1.97,1.21l0,0c-0.56,0.35-1.15,0.65-1.67,1.05
	l0,0c-1.63,1.26-3.17,2.69-4.53,4.23l0,0c-0.93,1.05-1.8,2.2-2.47,3.42l0,0c-0.4,0.73-0.66,1.54-0.93,2.33l0,0
	c-0.24,0.69-0.39,1.41-0.6,2.11l-0.71,2.18l-0.74,2.47l-0.71,2.37l-0.7,2.31l-0.61,2.08l-0.43,1.84l-0.46,1.88l-0.33,1.81
	l-0.31,1.89l-0.28,1.82l-0.28,1.72l-0.28,1.71l0,0c-0.08,0.51-0.16,1.02-0.21,1.54l0,0c-0.06,0.65-0.07,1.31-0.08,1.96l-0.02,1.59
	l0,1.17l0,0c0.01,0.38,0.01,0.76,0.05,1.14l0,0c0.03,0.29,0.05,0.59,0.12,0.88l0,0c0.05,0.23,0.13,0.46,0.22,0.68l0,0
	c0.08,0.19,0.17,0.37,0.29,0.54l0,0c0.12,0.18,0.27,0.35,0.43,0.49l0,0c0.2,0.17,0.43,0.31,0.66,0.43l0,0
	c0.24,0.13,0.49,0.24,0.75,0.32l0,0c0.31,0.1,0.64,0.15,0.97,0.19l0,0c0.32,0.04,0.65,0.06,0.97,0.05l0,0
	c0.35-0.02,0.7-0.07,1.04-0.14l0,0c0.47-0.1,0.93-0.25,1.38-0.41l0,0c0.34-0.13,0.69-0.27,1.01-0.44l0,0
	c0.23-0.12,0.45-0.25,0.66-0.4l0,0c0.36-0.26,0.7-0.56,1.03-0.87l0,0c0.39-0.37,0.74-0.77,1.12-1.16l1.12-1.15l1.13-1.14l1.83-1.74
	l1.86-1.64l0,0c0.65-0.58,1.33-1.15,1.95-1.76l0,0c0.55-0.54,1.1-1.08,1.58-1.69l0,0c0.44-0.55,0.81-1.17,1.17-1.78l0,0
	c0.57-0.96,1.04-1.98,1.6-2.96l1.92-3.23l2.13-3.19l1.7-2.39l1.91-2.92l1.6-2.63l1.21-2.23l1.19-2.5l0,0
	c0.49-0.94,0.99-1.88,1.55-2.79l0,0c0.82-1.34,1.7-2.65,2.61-3.94l2.88-3.89l0,0c0.66-0.89,1.35-1.76,1.95-2.69l0,0
	c0.51-0.78,0.97-1.58,1.4-2.4l0,0c0.64-1.22,1.13-2.51,1.77-3.73l0,0c0.67-1.29,1.38-2.57,2.17-3.78l0,0
	c0.89-1.35,1.98-2.57,2.9-3.89l2.93-4.49l1.99-3.62l2.02-4.12l0,0c0.81-1.62,1.57-3.28,2.49-4.83l0,0c0.8-1.36,1.75-2.65,2.65-3.95
	l2.38-3.35l1.48-2.45l1.02-1.82l1.03-1.91l1.02-1.96l0.7-1.49l0,0c0.22-0.46,0.44-0.92,0.69-1.36l0,0c0.22-0.4,0.46-0.8,0.72-1.17
	l0,0c0.19-0.27,0.4-0.53,0.61-0.79"/>
<path class="st0" d="M288.65,260.11L288.65,260.11c-0.14,0.06-0.27,0.13-0.41,0.19l-1.02,0.47l0,0c-0.29,0.14-0.59,0.26-0.88,0.41
	l0,0c-1.54,0.79-3.08,1.6-4.53,2.55l0,0c-1.28,0.83-2.53,1.75-3.67,2.76l0,0c-0.81,0.72-1.61,1.48-2.28,2.33l0,0
	c-0.94,1.2-1.69,2.58-2.41,3.93l0,0c-0.68,1.27-1.23,2.62-1.79,3.95l-1.89,4.94l-1.76,4.59l-2.02,4.55l-2.61,6.01l0,0
	c-0.82,2.07-1.6,4.17-2.25,6.3l0,0c-0.61,1.98-1.06,4.01-1.55,6.02l-1.06,4.57l-0.93,3.42l-0.9,3.53l-1.11,3.75l-1.46,4.31
	l-1.19,3.58l-0.99,2.95l0,0c-0.35,1.13-0.68,2.27-0.95,3.42l0,0c-0.25,1.08-0.47,2.18-0.63,3.28l0,0c-0.11,0.8-0.18,1.6-0.23,2.41
	l-0.05,2.2l-0.01,3.03l0.12,4.21l0.14,2.58"/>
<path class="st1" d="M780,151.53c-14.95,7.03-30.24,13.25-45.43,19.75c-13.56,6.02-26.88,12.6-40.73,17.95
	c11.8-2.7,23.1-7.07,34.33-11.5c18.35-6.94,35.91-15.8,52.6-26.09c1.07-0.68,2.14-1.37,3.2-2.07
	C782.66,150.24,781.33,150.89,780,151.53z"/>
<path class="st1" d="M810.42,148.47c-21.95,10.89-43.25,23.63-59.63,33.39c-11.94,7.29-21.74,13.34-34,20
	c14.02-5.18,27.18-12.32,40.32-19.36c18.79-10.65,36.86-22.53,54.85-34.47c0.77-0.53,1.53-1.08,2.3-1.62
	C812.99,147.13,811.7,147.8,810.42,148.47z"/>
<path class="st1" d="M810.46,149.77c-3.51,2.91-6.9,6.19-9.17,10.18c-0.25,0.64-0.86,1.99,0.38,1.8c4.61-1.81,8.03-5.89,11.23-9.54
	C816.98,147.11,815.6,145.65,810.46,149.77z"/>
<polygon points="868.06,206.08 868.06,206.08 868.06,206.08 "/>
<path d="M642.96,358.95c-2.23-2.65-4-5.63-5.63-8.68c-2.4-4.17-4.93-8.3-7.89-12.11c-1.89-2.71-3.79-5.49-6.5-7.44
	c-4.35-3.59-10.15-5.28-15.75-5.1c-5.84,0.41-11.01,3.48-15.67,6.8c-5.26,3.43-10.62,7.01-15.29,10.04
	c-2.02,1.6-4.16,3.45-6.45,5.12c2-1.12,3.97-2.67,5.79-3.67c1.75-0.62,3.41-1.4,5.03-2.32c2.93-1.16,6.42-2.96,9.87-4.8
	c6.76-3.55,16.72-0.61,24.53,4.43c5.08,3.64,9.69,7.93,14.75,11.63c4.1,3.36,8.38,6.44,13.33,8.42c0.78,0.39,1.51,0.87,2.32,1.2
	C644.54,361.32,643.88,360.04,642.96,358.95z"/>
<g>
	<polygon points="648.99,386.29 648.99,386.29 648.99,386.29 	"/>
	<path d="M652.24,371.2C652.24,371.2,652.24,371.2,652.24,371.2C652.24,371.2,652.24,371.2,652.24,371.2
		c-0.01,0-0.01,0.01-0.02,0.01c0,0,0,0,0,0c0,0,0,0,0,0c0,0,0,0,0,0c0,0,0,0,0,0c0,0,0,0,0-0.01c0,0-0.01,0.01-0.01,0.01
		c0,0,0,0-0.01,0c0,0,0,0,0,0c0,0,0,0,0,0c-0.01,0-0.01,0.01-0.02,0.01c0,0,0,0,0,0c-0.01,0-0.01,0.01-0.02,0.01c0,0,0,0-0.01,0
		c-4.15,1.93-7.85,5.52-9.59,9.77c-0.07,0.18-0.12,0.36-0.16,0.54c-0.52,0.85-0.76,1.85-0.87,2.88c-0.1,0.47-0.18,0.94-0.25,1.4
		c-0.28,1.57-0.71,3.1-1.05,4.65c-0.56,1.88-1.02,3.81-1.61,4.89c-0.67,0.95-0.54,2.5,0.86,2.57c1.35-0.26,2.62-1.05,3.77-1.78
		c2.05-1.73,3.75-3.98,4.99-6.35c0.52-1.09,0.67-2.3,0.77-3.5c0,0,0,0.01,0,0.01c0,0,0-0.01,0-0.01l0,0c0-0.01,0-0.01,0-0.01
		c0,0,0,0,0,0c0,0,0,0,0,0c0,0,0,0,0,0c0,0,0,0,0,0c0,0,0,0,0,0c0,0,0,0,0,0c0,0,0,0,0,0c0,0,0,0,0,0c0,0,0,0,0,0
		c0.11-0.3,0.2-0.61,0.31-0.91c1.07-2.65,1.85-5.44,2.43-8.22c0.37-1.89,0.18-3.84,0.5-5.73c0,0,0,0,0,0c0-0.01,0-0.01,0.01-0.02
		c0,0,0,0,0,0c0,0,0-0.01,0-0.02c0-0.01,0.01-0.03,0.01-0.04c0.01-0.06,0.04-0.12,0.04-0.14c0,0,0-0.01,0-0.01
		c0.01-0.01,0.02-0.02,0.02-0.02C652.29,371.18,652.26,371.19,652.24,371.2z"/>
</g>
<path d="M574.71,325.93c-0.05-0.16-0.12-0.26-0.2-0.33c-0.01-0.02-0.01-0.05-0.02-0.07l-0.03,0.03c-0.14-0.09-0.31-0.07-0.5,0
	c-0.58-0.71-1.09-1.46-1.73-2.11c-1.23-1.01-2.22-2.29-3.56-3.16c-3.48-2.41-7.49-3.89-11.17-5.95
	c-7.39-3.73-13.89-10.47-22.59-10.68c-1.95,0.09-3.84-0.46-5.79-0.54c0.31,0.17,0.63,0.3,0.94,0.46c1.65,1.12,3.53,1.67,5.31,2.52
	c0.93,0.55,1.79,1.19,2.61,1.87c1.38,1.3,2.74,2.64,4.1,3.97c1.68,1.83,3.3,3.73,5.1,5.41c2.41,2.31,5.05,4.37,7.94,6.04
	c0.57,0.35,1.15,0.67,1.74,0.99c1.61,1.46,3.21,2.92,4.9,4.29c1.39,1.39,2.75,2.81,4.19,4.13c0.13,0.13,0.28,0.26,0.43,0.39
	c0.13,0.18,0.29,0.35,0.43,0.49c0.01,0.01,0.01,0.01,0.02,0.02c0.1,0.81,0.64,1.56,1.66,1.61c0.01,0,0.02,0,0.03,0
	c0.42,0.07,0.87-0.05,1.19-0.32c0.44-0.12,0.81-0.45,0.99-0.87c1.08-0.92,2.32-2.25,2.6-2.71c0.15-0.15,0.26-0.31,0.25-0.45
	c0.01-0.01,0.01-0.02,0.02-0.03c0.01-0.01,0.01-0.01,0.02-0.02c0,0,0-0.01-0.01-0.01c0.39-0.78,0.74-1.95,0.93-2.95
	C574.99,327.3,575.3,326.6,574.71,325.93z"/>
<path d="M705.35,445.58c-0.6-7.09-3.3-13.92-7.54-19.62c-5.51-6.72-11.74-13.42-19.77-17.07c-0.44-0.19-0.88-0.36-1.33-0.54
	c1.28,1.36,2.45,2.82,3.53,4.34c3.88,5.29,6.84,11.18,10.83,16.4c4.07,5.69,8.69,11.07,11.6,17.49c0.94,2.28,2.32,4.59,1.97,7.15
	C705.76,451.14,705.6,448.32,705.35,445.58z"/>
<path d="M469.62,534.04c-2.43,1.31-4.8,2.75-7.41,3.67c-9.05,3.03-20.78,5.87-31.16,6.74c-7.27,1.15-14.68,1.23-22.02,0.7
	c-6.25-0.5-9.86-1.26-15.82-3.37c-5.28-1.55-10.48-3.4-15.5-5.65c-7.79-4.05-14.63-9.88-20.57-16.31
	c-4.1-5.16-7.83-17.27-10.63-23.25c-2.66-7.23-4.66-14.4-5.61-22.58c-0.71-3.87-1.72-9.76-2.35-13.29
	c-0.03-0.02-0.04-0.05-0.06-0.08c-0.07-0.33-0.15-0.61-0.23-0.86c-0.14-0.63-0.26-1.21-0.3-1.73c0-0.12-0.01-0.24-0.02-0.36
	c0.09-0.02,0.18-0.03,0.26-0.05c0.04,0,0.08-0.01,0.12-0.01c0,0,0,0,0,0c0.02,0,0.04,0,0.06-0.01c0.01,0,0.02-0.01,0.02-0.01
	c0.01,0,0.01-0.01,0.02-0.01c0,0,0.01,0,0.01,0c0,0,0,0,0.01,0c2.63-0.46,5.25-1.04,7.84-1.66c5.73-1.47,11.63-2.66,16.94-5.37
	c2.55-1.27,4.82-2.97,7.06-4.71c0.05-0.04,0.09-0.06,0.15-0.11c4.72-3.19,9.64-6.1,14.25-9.45c0.32-0.24,0.62-0.5,0.93-0.75
	c3.33-2.37,6.4-5.08,9.42-7.84c0.93-0.71,2.05-1.61,3.49-2.86c0.01-0.01,0.01-0.01,0.02-0.02c0.95-0.81,1.87-1.66,2.77-2.53
	c2.07-1.34,4.51-3.27,4.97-3.54c2.97-2.28,5.75-4.84,8.14-7.73c0.62-0.57,1.73-1.68,2.14-2.17c2.8-2.56,3.67-3.09,8.76-7.82
	c5.21-5.5,8.46-8.06,15.04-16.67c3.35-4.43,4.87-5.57,9.19-11.57c0.53-0.73,1.07-1.45,1.63-2.16c0.85-1.11,3.19-3.53,6.1-7.05
	c3.1-4.14,5.56-7.11,9.43-12.08c2.91-3.94,4.58-8.59,7.04-12.78c-3.88,5.57-7.31,12.13-10.61,15.52c-4.31,4.54-7.3,8.43-10.19,11.59
	c-3.52,3.56-6.94,7.21-9.98,11.19c-1.39,1.79-7.2,8-11.1,12.94c-0.18,0.2-0.35,0.41-0.53,0.61c-2.27,2.31-4.59,4.57-6.86,6.88
	c-0.12,0.11-0.24,0.22-0.37,0.33c-3.04,2.39-6.08,4.79-9.01,7.33c-0.19,0.16-0.38,0.32-0.57,0.47c-0.29,0.23-0.59,0.44-0.88,0.66
	c-0.45,0.33-0.91,0.66-1.36,0.98c-3,2.06-5.91,4.25-8.8,6.46c-0.06,0.04-0.11,0.08-0.17,0.12c-11.54,7.71-19.14,13.84-29.71,19.05
	c-7.58,3.73-12.88,4.89-22.18,6.94c-5.86,0.9-11.74,1.78-17.63,2.51c-2.35,0.35-4.78,0.31-7.16,0.51c0.77-3.19-0.66-6.17-0.86-8.74
	c-2.25-13.49,4.39-29.16,10.15-41.1c3.24-5.53,5.88-11.38,8.93-17.02c1.52-2.44,3.18-4.79,4.75-7.2c5.09-8.34,5.1-8.83,10.1-15.44
	c4.65-6.69,4.72-6.75,8.55-11.22c4.51-5.2,2.73-3.56,8.21-8.84c6.66-6.27,11.79-10.18,20.27-15.83c3.36-2.42,6.69-4.56,10.17-6.55
	c16.03-7.8,31.4-13.82,48.96-17.2c-14.37-0.16-28.48,3.62-41.75,8.89c-7.92,3.11-15.29,7.44-22.81,11.38
	c-7.07,4.34-14.17,8.66-20.73,13.75c-5.98,4.37-11.3,9.53-16.66,14.61c-6.08,6.19-12.21,12.43-17.55,19.28
	c-4.91,7.03-5.58,7.31-10.67,14.97c-4.41,7.51-8.88,15.05-12.39,23.03c-2.88,7.35-4.76,15.09-5.96,22.89
	c-1.05,8.55-2.32,17.89,0.74,26.11c0.29,1.2,0.72,2.36,1.17,3.52c0.56,1.41,1.17,2.91,2.29,3.96c0.18,0.12,0.41,0.25,0.64,0.28
	c0.44,0.25,0.98,0.39,1.43,0.54c2.45,0.59,4.97,0.89,7.46,1.29c4.21,0.66,8.43,0.59,12.62,0.12c0.02,0.25,0.03,0.5,0.03,0.74
	c0.22,3.33,0.46,14.17,0.62,17.5c0.43,10.42,0.12,20.17,2.09,32.21c1.72,6.07,6.74,19.01,10.09,23.37
	c7.01,8.74,16.31,15.52,26.99,19.02c5.21,1.77,10.47,3.52,15.88,4.56c7.99,1.34,16.11,0.69,24.12-0.21
	c3.86-0.38,7.56-1.64,11.36-2.33c6.87-1.33,13.48-3.62,20.07-5.91c3.13-0.97,6.15-2.25,9.11-3.65c4.78-1.9,9.32-4.3,13.5-7.32
	c3.06-1.92,6.22-3.67,9.31-5.71C474.52,531.79,472.06,532.91,469.62,534.04z"/>
<path d="M485.18,383.3c-0.99-4.57-2.88-8.89-4.41-13.27c-0.14-1.04-0.48-2.28-0.76-3.37c-0.25-0.81-0.45-1.64-0.8-2.41
	c0.08,0.97,0.02,1.94,0.01,2.91c-0.03,1.82-0.24,3.63-0.32,5.45c0.19,1.9,0.34,3.81,0.43,5.72c0.81,10.4,0.47,20.87-0.11,31.28
	c-1.05,8.94-2.03,17.86-1.75,26.88c-0.55,9.67,0.18,19.35,1.58,28.92c1.12,5.55,1.99,11.03,2.54,16.83
	c1.99-9.93,2.04-20.07,2.96-30.12c0.51-9.67,2.02-19.25,2.56-28.9c0.09-7.1,0.76-14.19,0.7-21.3
	C487.55,395.06,486.28,388.68,485.18,383.3z"/>
<path d="M465.8,578.05c-1.85-3.17-4.73-5.46-7.6-7.65c-0.47-0.37-0.93-0.74-1.41-1.1c0.46,0.69,0.89,1.39,1.34,2.09
	c2.79,3.88,4.77,8.26,5.54,13c0.57,2.85,1.03,6.75,0.5,9.97c-0.7,4.48-2.06,7.3-4.41,11.5c-0.15,0.23-0.42,0.64-0.67,1.02
	c-1.08,0.56-2.85,1.46-3.34,1.63c-0.38,0.16-0.76,0.31-1.14,0.45c-0.24,0.08-0.52,0.18-0.73,0.23c-5.96,1.98-11.68,0.88-16.46-0.64
	c-3.45-1.37-6.54-3.5-9.44-5.78c-2.54-1.92-4.82-4.22-6.47-6.96c-2.18-3.32-4.82-9.41-5.1-11.77c-1.19-7.63,1.45-14.22,4.05-18.02
	c0.03-0.04,0.06-0.09,0.09-0.13c0.01-0.01,0.02-0.03,0.03-0.04c2.92-1.87,7.61-4.65,11.7-5.84c3.41-0.99,6.97-1.28,10.51-1.08
	c1.2,0.08,2.44,0.17,3.56,0.64c0.59,0.31,1.12,0.74,1.75,0.98c-0.54-0.44-0.88-1.07-1.38-1.54c-1.23-0.96-2.78-1.39-4.26-1.82
	c-4.12-1.16-8.62-0.94-12.52,0.88c-10.07,3.34-17.1,12.44-21.11,21.92c-1.7,4.28-2.81,8.91-2.45,13.54
	c0.58,5.57,2.6,11.02,5.6,15.73c3.5,4.8,8.66,8.46,14.23,10.47c5.04,1.26,10.52,1.95,15.58,0.5c13.3-3.87,26.05-14.72,27.9-29.03
	C470.1,586.51,468.13,582.02,465.8,578.05z"/>
<path d="M596.72,601.38c-1.55,0.94-4.2,1.83-6.19,2.69c-7.58,3.71-16.19,5.46-25.19,7.13c-5.8,1.2-11.47,3.06-17.33,3.94
	c-13.53,2.09-27.22,2.62-40.89,2.87c-8.05,0.37-16.04-1.05-24.08-1.12c-0.43-0.05-0.85-0.15-1.27-0.24
	c0.22,0.14,0.44,0.29,0.67,0.42c4.29,1.54,8.48,3.38,12.8,4.84c14.24,3.96,29.39,5.32,44.06,3.2c5.82-0.97,11.38-3.07,17.01-4.77
	c10.26-2.88,21.78-6.78,30.24-12.14c4.2-2.35,10.31-5.64,14.18-9.66C599.38,599.54,598.16,600.51,596.72,601.38z"/>
<path class="st2" d="M647.24,461.72c-1.14-5.79-3.38-11.27-5.75-16.65c-2.52-4.98-5.6-10.51-9.5-15.09
	c-2.31-3.43-5.08-6.46-8.51-8.75c1.39,1.95,3.21,4.78,4.42,6.86c1.36,2.37,2.1,3.93,3.48,6.29c3.68,6.07,6.52,12.35,9.08,18.92
	c1.9,4.78,3.8,9.82,4.93,14.85c0.85,3.88,1.5,7.33,2.18,11.57c0.53,3.27,0.26,6.46,0.8,9.73c0.01-1.93,0.13-3.85,0.16-5.77
	C648.69,476.34,648.63,468.94,647.24,461.72z"/>
<path class="st2" d="M630.87,554.81c-2.88,4.24-4.07,6.28-6.32,9.24c-7.19,10.94-9.01,13.4-14.03,18
	c-6.64,6.54-7.84,7.54-16.25,13.31c-1.6,1.07-3.15,1.96-4.81,2.92c1.18-0.45,2.37-0.9,3.51-1.45c4.58-2.37,9.15-4.88,12.97-8.39
	c4.41-3.92,8.95-7.69,12.86-12.12c5.05-5.44,9.37-13.06,11.15-15.99c2.48-3.54,4.02-7.03,5.72-9.67c2.85-4.57,5.48-9.3,6.68-14.59
	C639.4,543.02,635.4,548.65,630.87,554.81z"/>
<path class="st2" d="M535.13,369.09c-10.41-3.85-21.76-3.62-32.61-2.12c-6.93,0.67-13.79,2.01-20.08,5.1
	c6.87-2.28,14.11-1.75,21.23-2.09c10.01-0.66,20.07-1.19,30.08-0.28c1.39,0.17,2.78,0.39,4.16,0.58
	C536.98,369.89,536.06,369.47,535.13,369.09z"/>
<path class="st4" d="M652.22,371.27c-0.01,0.02-0.02,0.03-0.02,0.05"/>
<path class="st4" d="M652.23,371.28c-0.01,0.02-0.02,0.04-0.02,0.06"/>
<path class="st4" d="M652.23,371.3c-0.02,0.03-0.04,0.07-0.04,0.11"/>
<path class="st4" d="M652.24,371.26c-0.03,0.05-0.05,0.11-0.06,0.17"/>
<path class="st4" d="M652.25,371.25c-0.04,0.06-0.06,0.13-0.08,0.2"/>
<path class="st4" d="M652.29,371.18c-0.06,0.03-0.11,0.09-0.16,0.14"/>
<path d="M750.25,487.41c0.15-1.32-0.25-2.98-1.36-3.79c0.31-1.05,0.24-2.18-0.11-3.22c-0.19-0.95-1.1-2.43-1.49-2.67
	c-0.19-0.18-0.41-0.36-0.65-0.51c0.12-0.72-0.02-1.72-0.08-2.14c-0.26-1.26-0.83-2.79-2.27-3.02c-0.04-0.01-0.07-0.01-0.11-0.02
	c-0.4-0.17-0.82-0.32-1.26-0.4c-0.33-0.09-0.67-0.13-1.01-0.14c1.42-1.29,2.68-2.86,2.17-4.83c-0.16-0.97-1.13-1.63-2.07-1.68
	c-1.26,0.04-2.19,0.6-3.23,1.04c-1.05,0.25-2.32,0.6-3.54,0.91c-1.84,0.28-3.75,0.38-5.61,0.72c-0.03,0-0.05,0.01-0.08,0.01
	c-1.92,0.35-3.78,0.95-5.43,2.29c-3.8,2.9-6.18,7.25-9.95,10.19c-1.11,1.03-2.38,1.86-3.61,2.92c-2.75,1.71-5.54,3.32-8.12,4.55
	c-4.35,2.36-4.54,2.15-9.45,4.37c-6.06,3.13-7.34,3.67-13.45,5.99c-4.34,1.68-7.81,3.34-11.06,4.72c-1.87,0.33-3.74,0.65-5.6,0.98
	c-2.46,0.46-5.91,0.79-9.98,0.35c-0.2-0.02-0.36-0.04-0.48-0.06c-4.79-0.71-14.61-1.8-16.71-2.13c-11.02-1.68-24.97-2.29-33.78-3.45
	c-6.36-1-11.51-3.3-15.97-5.36c-4.27-1.9-6.77-2.54-10.38-4.77c-0.19-2.49-0.56-4.94-1.55-7.25c-2.97-7.58-8.05-11.52-11.51-17.32
	c-0.1-0.16-0.21-0.32-0.31-0.47c-0.05-0.46-0.11-0.93-0.15-1.4c0.64-3.29,1.89-8.15,2.95-11.67c0.06-0.3,0.14-0.6,0.24-0.9
	c0.28-0.38,0.51-0.81,0.63-1.31c0.04-0.21,0.08-0.41,0.12-0.6c0.04-0.09,0.07-0.17,0.1-0.26c0.23,0.2,0.46,0.41,0.7,0.6
	c2.84,2.35,6,4.27,9.41,5.66c3.23,1.67,6.75,1.28,9.39-1.17c0.1-0.08,0.22-0.16,0.36-0.27c1.11-0.99,2.51-1.61,4.09-3.39
	c1.63-0.98,3.18-2.06,4.65-3.27c0.02-0.01,0.02-0.02,0.04-0.03c0.23-0.16,0.47-0.31,0.72-0.45c0.37-0.01,1.01-0.02,1.56,0
	c0.26,0.06,0.96,0.2,1.51,0.38c1.16,0.64,2.15,1.55,3.45,1.94c2.54,0.85,5.37-0.34,6.78-2.58c1.73-2.53,2.12-5.66,2.81-8.57
	c0.35-1.46,0.68-2.92,1.23-4.32c0.01-0.02,0.02-0.05,0.03-0.07c0.91-1.94,2.02-3.78,3.17-5.59c1.82-1.96,3.52-4.01,4.6-6.47
	c0.15-0.26,0.31-0.53,0.46-0.81c0.82,0.46,1.64,0.93,2.47,1.38c8.01,3.9,15.71,8.41,23.8,12.15c9.52,4.81,18.77,10.17,28.63,14.27
	c-3.5-2.5-6.91-5.07-10-8.07c-4.09-3.31-8.02-6.82-12.11-10.12c-12.29-9.13-24.8-17.95-36.67-27.62
	c-5.07-4.22-10.58-7.87-15.81-11.89c-5.43-4.83-10.93-9.58-16.82-13.84c-3.97-3.15-7.96-6.24-12.42-8.67
	c-8.22-4.98-15.89-10.82-23.61-16.51c-12.95-8.47-25.74-17.26-37.37-27.5c-4.47-3.77-9.21-7.22-13.66-11.02
	c-2.63-2.34-4.87-5.06-7.35-7.55c-2.17-2.16-4.21-4.44-6.21-6.76c-0.96-1.15-1.92-2.35-2.35-3.8c-0.37-0.99-0.51-2.4-0.29-3.26
	c1.31-0.6,4.54-1.23,6.62-1.04c1.46,0.02,2.94,0.08,4.35,0.49c-0.26-0.16-0.53-0.31-0.81-0.44c-2.92-1.13-6.47-2.14-9.39-0.55
	c-1.71,1.13-3.3,2.83-3.55,4.94c-0.67,5.06,3.16,9.06,5.49,13.17c2.4,3.6,4.48,7.4,7.11,10.84c3.09,3.77,6.45,7.33,9.79,10.89
	c4.01,4.28,7.53,9.01,11.7,13.14c4.42,3.98,8.75,8.09,13.4,11.79c3.6,2.86,7.54,5.27,11.24,8.01c1.24,0.97,2.49,1.93,3.73,2.9
	c-0.01,0.01-0.01,0.01-0.02,0.02c-0.21,0.15-0.41,0.31-0.59,0.51c-1.83,2.03-3.14,4.45-4.01,7.02c-0.34,0.75-0.66,1.51-0.96,2.27
	c-1.89,5.14-2.93,10.57-3.47,16.03c-0.18,0.47-0.22,1.2-0.29,1.53c-0.39,3.06-0.17,6.15,0.13,9.22c-0.44,5.14-0.45,10.33-0.57,15.5
	c0.01,0.48-0.01,1.02-0.06,1.59c-1.71,2.82-3.69,5.47-5.55,8.18c-3.13,4.22-2.92,4.59-6.83,8.31c-3.88,3.7-7.95,6.06-12.42,9.71
	c-1.89,1.36-3.74,2.79-5.48,4.36c-2.41,2.23-4.1,5.03-5.81,7.81c-1.41,1.9-2.76,3.84-4.01,5.84c-2.29,4.17-4.17,8.57-5.77,13.06
	c-0.79,1.99-1.59,3.98-2.43,5.95c-3.12,6.92-4.53,14.39-5.63,21.86c-1,6.96-2.02,13.92-2.66,20.92c-0.9,9.81-1.89,19.67-1.5,29.54
	c0.36,7.71,2.16,15.24,3.67,22.78c1.73,8.63,4.05,17.15,7.08,25.41c2.26,6.01,4.34,12.78,9.89,16.59c2.41,1.83,5.56,2.01,8.48,1.92
	c4.22-0.03,8.41-0.59,12.61-1.02c6.36-0.59,12.76-0.95,19.07-2c3.76-0.2,7.52-0.49,11.25-1.07c3.15-0.36,6.33-0.46,9.46-0.99
	c2.22-0.21,4.27-1.15,6.43-1.64c3.26-0.43,6.29-1.68,9.18-3.21c0.9-0.46,1.87-0.91,2.72-1.5c0.27-0.14,0.51-0.31,0.73-0.5
	c1.47-0.97,2.44-2.5,3.35-4.02c0.88-1.06,1.66-2.2,2.15-3.49c2.19-5.18,2.05-10.95,1.39-16.43c-0.51-6.29-1.39-12.55-1.81-18.85
	c-0.28-5.1-0.48-10.02-0.34-14.63c0.49-1.24,0.98-2.34,1.8-4.23c0.8-2.04,1.87-3.94,3.25-5.65c-0.13,0.17-0.26,0.34-0.39,0.51
	c0.58-0.93,1.53-1.72,2.08-2.68c0.5-0.47,1.05-0.9,1.74-1.34c0.05-0.03,0.1-0.06,0.15-0.08c0.97-0.05,2-0.1,3.12-0.13
	c5-0.28,10.01-0.73,15.02-0.45c5.58,0.44,9.08,1.31,15.49,1.99c7.46,0.76,14.99,0.85,22.48,0.42c1.46-0.1,2.92-0.25,4.37-0.44
	c1.92,0.65,3.83,1.37,5.85,1.64c2.75,0.45,5.58,0.42,8.31-0.12c2.6-0.71,5.04-1.91,7.45-3.11c2.68-1.56,5.14-3.47,7.98-4.77
	c6.63-3.52,13.03-7.46,19.25-11.67c4.86-3.78,7.05-5.29,13.31-9.19c3.64-2.25,6.99-4.95,10.75-7.01c0.23-0.12,0.45-0.26,0.67-0.4
	c1.57-0.36,3.11-0.55,4.79-0.78c3.5-0.66,6.95-1.61,10.36-2.65c2.43-0.68,4.89-1.33,7.23-2.28c1-0.21,1.97-0.59,2.9-0.99
	c1.03-0.44,2.03-1.16,2.52-2.19c0.51-1.19,0.37-2.5,0.05-3.75c0.04-0.05,0.08-0.1,0.12-0.15
	C749.78,490.01,750.25,488.73,750.25,487.41z"/>
<path class="st5" d="M587.42,452.52c1.64-2.19,3.15-4.12,5.12-6.71c-0.16,0.07-0.51,0.38-0.96,0.8c0.08-0.11,0.16-0.22,0.24-0.33
	c0.51-0.63,0.3-0.39-0.13-0.02c-0.85,0.8-1.67,1.65-2.46,2.55c0.26-0.42,0.51-0.84,0.76-1.27c0.56-0.64,1.15-1.27,1.79-1.88
	c-0.39,0.24-0.77,0.5-1.13,0.77c0.18-0.3,0.36-0.61,0.54-0.91c-0.39,0.49-0.8,0.97-1.22,1.47c-1.01,0.86-1.89,1.85-2.68,2.92
	c0.03-0.18,0.05-0.37,0.06-0.56c-0.19,0.33-0.33,0.69-0.43,1.06c-0.28,0.41-0.55,0.82-0.8,1.25c0.08-0.26,0.15-0.53,0.23-0.79
	c1.24-2.48,2.37-5.02,3.58-7.52c-0.89,1.22-1.74,2.5-2.52,3.82c0.11-0.41,0.23-0.81,0.33-1.22c-0.48,1-0.93,2.03-1.33,3.07
	c-0.09,0.18-0.19,0.35-0.27,0.52c0.32-1.09,0.64-2.18,0.94-3.27c0.61-1.45,1.26-2.93,1.92-4.61c-0.4,0.62-0.79,1.26-1.17,1.91
	c0.04-0.13,0.08-0.26,0.11-0.4c-0.16,0.34-0.31,0.67-0.47,1.01c-0.07,0.13-0.15,0.26-0.23,0.39c0.31-0.76,0.62-1.53,0.94-2.34
	c-0.48,0.78-0.93,1.58-1.34,2.4c0.02-0.09,0.05-0.17,0.07-0.26c-0.33,0.69-0.65,1.39-0.96,2.1c0-0.12,0.01-0.24,0-0.36
	c-0.06,0.2-0.09,0.4-0.11,0.61c-0.05,0.11-0.1,0.22-0.15,0.34c-0.09,0.14-0.16,0.3-0.24,0.45c0.11-0.42,0.23-0.83,0.33-1.25
	c-0.23,0.41-0.42,0.84-0.63,1.27c0-0.06,0-0.11,0-0.17c0.77-1.85,1.76-3.59,2.58-5.65c-0.66,0.89-1.3,1.82-1.86,2.79
	c0.68-1.93,1.38-3.85,2.15-5.73c0.08-0.18,0.16-0.37,0.23-0.55c-1.54,2.29-2.93,4.71-3.93,7.28c-0.16,0.4-0.31,0.81-0.44,1.21
	c0.36-4.34,0.43-8.7,0.27-13.06c-0.6,2.84-0.99,5.7-1.24,8.58c-0.02-0.08-0.03-0.17-0.05-0.25c-0.14,0.59-0.16,1.2-0.07,1.8
	c-0.01,0.16-0.03,0.32-0.04,0.49c-0.01-0.05-0.01-0.11-0.02-0.16c-0.07-1.24-0.17-2.48-0.34-3.72c-0.1,1.45-0.19,2.91-0.24,4.36
	c-0.06-0.31-0.12-0.63-0.19-0.94c-0.01-0.53-0.07-1.05-0.23-1.57c-0.03,0.15-0.05,0.31-0.07,0.47c-0.76-2.71-1.86-5.31-3-7.88
	c-0.58-1.8-1.19-3.59-1.81-5.38c0.11,0.84,0.24,1.68,0.37,2.52c-0.62-1.27-1.27-2.52-2-3.74c0.89,2.62,1.78,5.23,2.67,7.85
	c0.11,1.33,0.28,2.65,0.48,3.97c-0.1-0.38-0.22-0.75-0.4-1.11c0,0.3,0.03,0.6,0.07,0.9c-0.01-0.03-0.02-0.05-0.03-0.08
	c-0.28-1.15-0.65-2.28-1.35-3.26c0.04,0.32,0.1,0.65,0.18,0.97c-0.31-0.64-0.63-1.29-0.96-1.92c0.27,0.94,0.56,1.84,0.85,2.75
	c-0.02-0.01-0.05-0.01-0.07-0.02c-0.81-2.48-1.75-4.92-2.77-7.32c0.65,2.39,1.13,4.88,1.73,7.32c-0.43-0.86-0.89-1.7-1.36-2.54
	c-1.08-4.58-1.75-9.31-2.27-13.27c-0.43-3.25-1.01-6.98-1.37-11.78c-0.07-1.02-0.14-2.04-0.2-3.06c-0.07,0.63-0.13,1.26-0.19,1.89
	c-0.89,7.59-0.38,15.37,1.87,22.65c-0.5-0.77-1.02-1.53-1.55-2.28c-0.84-3.5-1.62-7.02-2.34-10.54c0.26-2.93,0.64-5.86,0.65-8.81
	c-0.44,1.82-0.89,3.67-1.19,5.54c-0.57-4.04-1.17-7.84-1.39-12.88c-0.01-0.24-0.02-0.48-0.03-0.72c-0.21,1.45-0.37,2.91-0.46,4.38
	c-0.27,5.06,0.38,10.12,1.56,15.06c0.05,0.7,0.14,1.39,0.28,2.08c0.13,0.99,0.28,1.97,0.48,2.95c0.31,1.38,0.7,2.74,1.14,4.08
	c-0.46-0.72-0.92-1.45-1.39-2.17c-0.56-1.18-1.15-2.35-1.73-3.53c-1.7-8.26-2.17-15.67-2.73-24.94c-0.03-0.68-0.05-1.36-0.07-2.05
	c-0.1,0.64-0.2,1.29-0.3,1.93c-1.03,6.4-1.25,12.05-0.29,17.58c-1.01-2.52-2.2-5.6-3.13-8.13c0.24,2.15,1.08,6.22,2.13,9.73
	c-1.1-2.09-2.17-4.2-3.19-6.33c-0.43-1.64-0.86-3.28-1.24-4.93c0.02,0.8,0.04,1.6,0.06,2.41c-0.37-0.81-0.74-1.63-1.09-2.45
	c0.36,1.53,0.74,3.05,1.15,4.57c0.04,1.29,0.09,2.59,0.17,3.89c-0.02-0.05-0.04-0.1-0.06-0.15c0.02,0.11,0.05,0.23,0.07,0.34
	c0.19,2.94,0.55,5.85,1.29,8.64c-0.06-0.12-0.13-0.25-0.19-0.37c0.06,0.21,0.11,0.41,0.17,0.62c0.56,1.9,1.08,3.82,1.63,5.72
	c-0.03-0.06-0.07-0.12-0.11-0.19c0.82,2.78,1.66,5.58,2.68,8.3c0.46,1.68,0.99,3.33,1.71,4.92c1.26,2.64,3.08,4.95,4.81,7.3
	c-0.17-0.56-0.34-1.09-0.52-1.63c0.92,1.2,1.88,2.37,2.85,3.52c-0.46-1.08-0.9-2.17-1.34-3.26c0.45,0.48,0.91,0.95,1.39,1.4
	c0.98,1.26,2.05,2.45,3.15,3.6c-0.43-0.98-0.89-1.95-1.34-2.93c0.68,0.89,1.37,1.76,2.06,2.64c-0.29-0.78-0.56-1.53-0.84-2.27
	c0.38,0.4,0.75,0.81,1.15,1.2c0.66,0.95,1.33,1.89,2.02,2.82c-0.16-0.65-0.37-1.29-0.59-1.91c0.11,0.18,0.22,0.37,0.34,0.55
	c0.1,0.2,0.18,0.41,0.28,0.61c0.32,0.7,0.65,1.39,0.96,2.1c-0.04-0.2-0.09-0.4-0.14-0.6c0.39,0.65,0.82,1.27,1.27,1.88
	c0.08,0.19,0.16,0.37,0.24,0.56c-0.02-0.11-0.05-0.21-0.07-0.32c0.01,0.02,0.02,0.03,0.04,0.05c-0.03-0.14-0.08-0.27-0.11-0.4
	c-0.09-0.4-0.17-0.79-0.26-1.19c1.1,2.23,2.35,4.38,3.85,6.39c-0.82-1.83-1.55-3.57-2.28-5.28c0.4,0.76,0.78,1.53,1.12,2.33
	c-0.22-0.95-0.52-1.87-0.87-2.77c0.02,0.01,0.04,0,0.06,0c0.18,0.39,0.37,0.77,0.56,1.16c0.13,0.46,0.26,0.9,0.39,1.32
	c-0.04-0.25-0.07-0.51-0.1-0.76c0.12,0.24,0.25,0.47,0.38,0.71c0.01,0.27,0.01,0.53,0.02,0.8c0.02-0.21,0.05-0.42,0.07-0.63
	c0.72,1.29,1.5,2.54,2.4,3.72c-0.18-0.5-0.39-0.98-0.61-1.45c-0.16-0.81-0.38-1.56-0.64-2.3c0.25,0.48,0.52,0.96,0.82,1.42
	c-0.03-0.37-0.08-0.73-0.12-1.09c0.12,0.62,0.3,1.23,0.55,1.82c-0.02-0.52-0.09-1.04-0.17-1.55c0.04,0.11,0.08,0.22,0.12,0.32
	c-0.02-0.13-0.04-0.28-0.06-0.42c0.41,1.27,0.92,2.51,1.51,3.71c-0.62-2.79-0.82-5.71-1.17-8.67c0.07-0.52,0.15-1.04,0.24-1.56
	C586.59,454.4,586.99,453.47,587.42,452.52z"/>
<rect x="729.32" y="461.2" transform="matrix(0.9693 -0.246 0.246 0.9693 -96.4762 195.2009)" class="st6" width="7.25" height="44.98"/>
<rect x="745.27" y="460.17" transform="matrix(0.9693 -0.2461 0.2461 0.9693 -108.6838 200.008)" class="st6" width="1.5" height="149.5"/>
<ellipse transform="matrix(0.9611 -0.2761 0.2761 0.9611 -110.6145 223.562)" class="st6" cx="738.61" cy="504.6" rx="6.06" ry="1.75"/>
<path class="st1" d="M559.97,474.03c-0.95-2.06-2.28-3.9-3.51-5.8c-2.89-4.83-6.28-9.38-10.73-12.89c-3.41-2.9-7.12-5.55-11.43-6.89
	c-2.19-0.68-4.49-1.19-6.79-1.09c-2.94,0.14-5.68,1.23-8.38,2.3c-2.55,1.03-5.18,1.96-7.47,3.51c-2.84,1.92-5.16,4.48-7.3,7.12
	c-11.21,12.91-11.61,41.52-4.35,56.48c2.06,4.95,4.92,9.58,8.67,13.43c4.39,4.45,12.93,9.62,16.38,12.22
	c6.15,4.74,10.75,10.19,13.11,17.66c-0.51-4.26-2.16-8.29-4.12-12.08c-2.95-5.49-7.59-9.74-12.17-13.86
	c-4.56-4.35-8.95-8.49-11.13-12.02c-6.43-10.21-8.56-17.89-8.62-29.82c0.04-9.1,1.46-17.45,4.94-23.82c1.77-3.22,6.04-7.7,7.55-8.9
	c3.9-2.6,4.51-2.4,9.21-4.28c4.18-1.5,4.83-1.22,7.16-0.89c2.84,0.52,5.03,1.42,5.8,1.83c7.79,3.95,12.13,7.76,18.1,14.15
	c1.26,1.27,2.94,2.86,3.83,4.03c1.19,1.58,2.33,4.3,3.32,6.39C561.36,478.54,560.92,476.2,559.97,474.03z"/>
<path class="st1" d="M755.17,517.75c-3.28,0.05-3.28,4.94,0,5C758.46,522.69,758.45,517.81,755.17,517.75z"/>
</svg>
